# Blender v2.91.0 OBJ File: 'power_ups.blend'
# www.blender.org
o Heart_Cube
v 0.309868 0.234678 -0.047407
v 0.309868 -0.075092 -0.047407
v 0.309868 0.234678 0.047407
v 0.309868 -0.075092 0.047407
v 0.156751 -0.191103 0.047407
v 0.156751 0.310903 -0.047407
v 0.156751 -0.191103 -0.047407
v 0.156751 0.310903 0.047407
v 0.233310 -0.133097 0.047407
v 0.233310 0.299686 -0.047407
v 0.233310 -0.133097 -0.047407
v 0.233310 0.299686 0.047407
v 0.078376 -0.250486 -0.047407
v 0.078376 0.290554 0.047407
v 0.078376 -0.250486 0.047407
v 0.078376 0.290554 -0.047407
v 0.039188 -0.280177 -0.047407
v 0.028103 0.250385 0.047407
v 0.039188 -0.280177 0.047407
v 0.028103 0.250385 -0.047407
v 0.271589 -0.104094 0.047407
v 0.271589 0.281132 -0.047407
v 0.271589 -0.104094 -0.047407
v 0.271589 0.281132 0.047407
v 0.271589 0.065205 -0.047407
v 0.359347 0.064242 0.047407
v 0.233310 0.064992 -0.047407
v 0.078376 0.064132 -0.047407
v 0.032000 0.063874 -0.047407
v 0.078376 0.065094 0.047407
v 0.156751 0.064805 0.047407
v 0.233310 0.064524 0.047407
v 0.156751 0.064567 -0.047407
v 0.271589 0.064383 0.047407
v 0.031971 0.065264 0.047407
v 0.359347 0.065419 -0.047407
v 0.078376 0.140657 -0.047407
v 0.271589 0.144061 0.047407
v 0.030398 0.140538 -0.047407
v 0.030313 0.144621 0.047407
v 0.271589 0.141139 -0.047407
v 0.354680 0.141301 -0.047407
v 0.078376 0.144510 0.047407
v 0.353734 0.143910 0.047407
v 0.156751 0.144328 0.047407
v 0.233310 0.141044 -0.047407
v 0.233310 0.144150 0.047407
v 0.156751 0.140853 -0.047407
v 0.271589 0.000819 -0.047407
v 0.351038 0.000773 0.047407
v 0.233310 0.001266 -0.047407
v 0.078376 0.003072 -0.047407
v 0.033259 0.003598 -0.047407
v 0.078376 0.001185 0.047407
v 0.156751 0.001059 0.047407
v 0.233310 0.000935 0.047407
v 0.156751 0.002158 -0.047407
v 0.271589 0.000874 0.047407
v 0.033308 0.001257 0.047407
v 0.350566 0.000072 -0.047407
v 0.309868 0.234678 -0.031664
v 0.309868 -0.075092 -0.031664
v 0.156751 0.310903 -0.031664
v 0.156751 -0.191103 -0.031664
v 0.233310 0.299686 -0.031664
v 0.233310 -0.133097 -0.031664
v 0.078376 -0.250486 -0.031664
v 0.078376 0.290554 -0.031664
v 0.039188 -0.280177 -0.031664
v 0.028103 0.250385 -0.031664
v 0.271589 0.281132 -0.031664
v 0.271589 -0.104094 -0.031664
v 0.359347 0.065223 -0.031664
v 0.354523 0.141734 -0.031664
v 0.350644 0.000188 -0.031664
v 0.309868 0.234678 0.032384
v 0.156751 0.310903 0.032384
v 0.156751 -0.191103 0.032384
v 0.233310 0.299686 0.032384
v 0.233310 -0.133097 0.032384
v 0.078376 -0.250486 0.032384
v 0.078376 0.290554 0.032384
v 0.039188 -0.280177 0.032384
v 0.028103 0.250385 0.032384
v 0.271589 0.281132 0.032384
v 0.271589 -0.104094 0.032384
v 0.309868 -0.075092 0.032384
v 0.359347 0.064429 0.032384
v 0.353884 0.143496 0.032384
v 0.350963 0.000662 0.032384
v -0.309868 0.234678 -0.047407
v -0.309868 -0.075092 -0.047407
v -0.309868 0.234678 0.047407
v -0.309868 -0.075092 0.047407
v 0.000000 -0.309868 -0.047407
v 0.000000 0.210217 0.047407
v 0.000000 -0.309868 0.047407
v 0.000000 0.210217 -0.047407
v -0.156751 -0.191103 0.047407
v -0.156751 0.310903 -0.047407
v -0.156751 -0.191103 -0.047407
v -0.156751 0.310903 0.047407
v -0.233310 -0.133097 0.047407
v -0.233310 0.299686 -0.047407
v -0.233310 -0.133097 -0.047407
v -0.233310 0.299686 0.047407
v -0.078376 -0.250486 -0.047407
v -0.078376 0.290554 0.047407
v -0.078376 -0.250486 0.047407
v -0.078376 0.290554 -0.047407
v -0.039188 -0.280177 -0.047407
v -0.028103 0.250385 0.047407
v -0.039188 -0.280177 0.047407
v -0.028103 0.250385 -0.047407
v -0.271589 -0.104094 0.047407
v -0.271589 0.281132 -0.047407
v -0.271589 -0.104094 -0.047407
v -0.271589 0.281132 0.047407
v -0.271589 0.065205 -0.047407
v -0.359347 0.064242 0.047407
v -0.233310 0.064992 -0.047407
v 0.000000 0.063697 -0.047407
v -0.078376 0.064132 -0.047407
v -0.032000 0.063874 -0.047407
v 0.000000 0.065382 0.047407
v -0.078376 0.065094 0.047407
v -0.156751 0.064805 0.047407
v -0.233310 0.064524 0.047407
v -0.156751 0.064567 -0.047407
v -0.271589 0.064383 0.047407
v -0.031971 0.065264 0.047407
v -0.359347 0.065419 -0.047407
v -0.078376 0.140657 -0.047407
v -0.271589 0.144061 0.047407
v -0.030398 0.140538 -0.047407
v -0.030313 0.144621 0.047407
v 0.000000 0.144692 0.047407
v -0.271589 0.141139 -0.047407
v -0.354680 0.141301 -0.047407
v -0.078376 0.144510 0.047407
v -0.353734 0.143910 0.047407
v -0.156751 0.144328 0.047407
v -0.233310 0.141044 -0.047407
v -0.233310 0.144150 0.047407
v 0.000000 0.140462 -0.047407
v -0.156751 0.140853 -0.047407
v -0.271589 0.000819 -0.047407
v -0.351038 0.000773 0.047407
v -0.233310 0.001266 -0.047407
v 0.000000 0.003986 -0.047407
v -0.078376 0.003072 -0.047407
v -0.033259 0.003598 -0.047407
v 0.000000 0.001311 0.047407
v -0.078376 0.001185 0.047407
v -0.156751 0.001059 0.047407
v -0.233310 0.000935 0.047407
v -0.156751 0.002158 -0.047407
v -0.271589 0.000874 0.047407
v -0.033308 0.001257 0.047407
v -0.350566 0.000072 -0.047407
v -0.309868 0.234678 -0.031664
v -0.309868 -0.075092 -0.031664
v 0.000000 -0.309868 -0.031664
v 0.000000 0.210217 -0.031664
v -0.156751 0.310903 -0.031664
v -0.156751 -0.191103 -0.031664
v -0.233310 0.299686 -0.031664
v -0.233310 -0.133097 -0.031664
v -0.078376 -0.250486 -0.031664
v -0.078376 0.290554 -0.031664
v -0.039188 -0.280177 -0.031664
v -0.028103 0.250385 -0.031664
v -0.271589 0.281132 -0.031664
v -0.271589 -0.104094 -0.031664
v -0.359347 0.065223 -0.031664
v -0.354523 0.141734 -0.031664
v -0.350644 0.000188 -0.031664
v -0.309868 0.234678 0.032384
v 0.000000 -0.309868 0.032384
v 0.000000 0.210217 0.032384
v -0.156751 0.310903 0.032384
v -0.156751 -0.191103 0.032384
v -0.233310 0.299686 0.032384
v -0.233310 -0.133097 0.032384
v -0.078376 -0.250486 0.032384
v -0.078376 0.290554 0.032384
v -0.039188 -0.280177 0.032384
v -0.028103 0.250385 0.032384
v -0.271589 0.281132 0.032384
v -0.271589 -0.104094 0.032384
v -0.309868 -0.075092 0.032384
v -0.359347 0.064429 0.032384
v -0.353884 0.143496 0.032384
v -0.350963 0.000662 0.032384
vt 0.237305 0.660428
vt 0.266700 0.660428
vt 0.266700 0.735834
vt 0.237305 0.735834
vt 0.383080 0.660428
vt 0.383251 0.735834
vt 0.266700 0.230538
vt 0.396309 0.230538
vt 0.382174 0.259933
vt 0.266700 0.259933
vt 0.266700 0.943692
vt 0.519139 0.943692
vt 0.551443 0.973785
vt 0.266700 0.973785
vt 0.950459 0.660428
vt 0.980552 0.660428
vt 0.980552 0.735834
vt 0.950459 0.735834
vt 0.801391 0.660428
vt 0.860181 0.660428
vt 0.860181 0.735834
vt 0.801391 0.735834
vt 0.266700 0.794625
vt 0.414087 0.794625
vt 0.448869 0.853415
vt 0.266700 0.853415
vt 0.266700 0.082168
vt 0.489731 0.082168
vt 0.449912 0.142353
vt 0.266700 0.142353
vt 0.088935 0.660428
vt 0.149120 0.660428
vt 0.149120 0.735834
vt 0.088935 0.735834
vt 0.266700 0.765230
vt 0.396376 0.765230
vt 0.771996 0.660428
vt 0.771996 0.735834
vt 0.414450 0.201143
vt 0.266700 0.201143
vt 0.207910 0.660428
vt 0.207910 0.735834
vt 0.058842 0.660428
vt 0.058842 0.735834
vt 0.266700 0.052075
vt 0.521239 0.052075
vt 0.920367 0.660428
vt 0.920366 0.735834
vt 0.488071 0.913600
vt 0.266700 0.913600
vt 0.266700 0.021983
vt 0.553890 0.021983
vt 0.028749 0.660428
vt 0.028749 0.735834
vt 0.742601 0.660428
vt 0.742601 0.735834
vt 0.474834 0.765230
vt 0.480759 0.735834
vt 0.603153 0.735834
vt 0.573267 0.765230
vt 0.482266 0.338956
vt 0.482566 0.259933
vt 0.599145 0.259933
vt 0.599810 0.338956
vt 0.610071 0.973785
vt 0.576552 0.943692
vt 0.647734 0.943693
vt 0.682643 0.973785
vt 0.509075 0.142353
vt 0.543439 0.082168
vt 0.610752 0.082168
vt 0.581394 0.142353
vt 0.484010 0.794625
vt 0.571570 0.794625
vt 0.484525 0.201143
vt 0.568154 0.201143
vt 0.575305 0.052075
vt 0.608528 0.021983
vt 0.678772 0.021983
vt 0.644071 0.052075
vt 0.475849 0.230538
vt 0.569657 0.230538
vt 0.509301 0.853415
vt 0.584689 0.853415
vt 0.544285 0.913600
vt 0.614140 0.913600
vt 0.742601 0.765230
vt 0.742601 0.943693
vt 0.742601 0.973785
vt 0.742601 0.794625
vt 0.742601 0.021983
vt 0.742601 0.052075
vt 0.742601 0.230538
vt 0.742601 0.259933
vt 0.742601 0.082168
vt 0.742601 0.913600
vt 0.742601 0.338956
vt 0.742601 0.142353
vt 0.742601 0.201143
vt 0.742601 0.853415
vt 0.382353 0.338956
vt 0.481046 0.660428
vt 0.602518 0.660428
vt 0.207910 0.259933
vt 0.237305 0.259933
vt 0.237305 0.338956
vt 0.207910 0.338956
vt 0.771996 0.259933
vt 0.771996 0.338956
vt 0.920366 0.259933
vt 0.950459 0.259933
vt 0.950459 0.338956
vt 0.920367 0.338956
vt 0.028749 0.259933
vt 0.058842 0.259933
vt 0.058842 0.338956
vt 0.028749 0.338956
vt 0.860181 0.259933
vt 0.860181 0.338956
vt 0.088935 0.259933
vt 0.088935 0.338956
vt 0.149120 0.259933
vt 0.149120 0.338956
vt 0.801391 0.259933
vt 0.801391 0.338956
vt 0.980552 0.259933
vt 0.980552 0.338956
vt 0.266700 0.338956
vt 0.237305 0.660428
vt 0.237305 0.735834
vt 0.266700 0.735834
vt 0.266700 0.660428
vt 0.383251 0.735834
vt 0.383080 0.660428
vt 0.266700 0.230538
vt 0.266700 0.259933
vt 0.382174 0.259933
vt 0.396309 0.230538
vt 0.266700 0.943692
vt 0.519139 0.943692
vt 0.950459 0.660428
vt 0.950459 0.735834
vt 0.801391 0.660428
vt 0.801391 0.735834
vt 0.860181 0.735834
vt 0.860181 0.660428
vt 0.266700 0.794625
vt 0.266700 0.853415
vt 0.448869 0.853415
vt 0.414087 0.794625
vt 0.266700 0.082168
vt 0.266700 0.142353
vt 0.449912 0.142353
vt 0.489731 0.082168
vt 0.088935 0.660428
vt 0.088935 0.735834
vt 0.149120 0.735834
vt 0.149120 0.660428
vt 0.266700 0.765230
vt 0.396376 0.765230
vt 0.771996 0.660428
vt 0.771996 0.735834
vt 0.266700 0.201143
vt 0.414450 0.201143
vt 0.207910 0.735834
vt 0.207910 0.660428
vt 0.058842 0.660428
vt 0.058842 0.735834
vt 0.266700 0.052075
vt 0.521239 0.052075
vt 0.920366 0.735834
vt 0.920367 0.660428
vt 0.266700 0.913600
vt 0.488071 0.913600
vt 0.742601 0.660428
vt 0.742601 0.735834
vt 0.474834 0.765230
vt 0.573267 0.765230
vt 0.603153 0.735834
vt 0.480759 0.735834
vt 0.482266 0.338956
vt 0.599810 0.338956
vt 0.599145 0.259933
vt 0.482566 0.259933
vt 0.647734 0.943693
vt 0.576552 0.943692
vt 0.509075 0.142353
vt 0.581394 0.142353
vt 0.610752 0.082168
vt 0.543439 0.082168
vt 0.484010 0.794625
vt 0.571570 0.794625
vt 0.484525 0.201143
vt 0.568154 0.201143
vt 0.575305 0.052075
vt 0.644071 0.052075
vt 0.475849 0.230538
vt 0.569657 0.230538
vt 0.509301 0.853415
vt 0.584689 0.853415
vt 0.544285 0.913600
vt 0.614140 0.913600
vt 0.742601 0.765230
vt 0.742601 0.943693
vt 0.742601 0.794625
vt 0.742601 0.052075
vt 0.742601 0.259933
vt 0.742601 0.230538
vt 0.742601 0.082168
vt 0.742601 0.913600
vt 0.742601 0.338956
vt 0.742601 0.142353
vt 0.742601 0.201143
vt 0.742601 0.853415
vt 0.382353 0.338956
vt 0.481046 0.660428
vt 0.602518 0.660428
vt 0.207910 0.259933
vt 0.207910 0.338956
vt 0.237305 0.338956
vt 0.237305 0.259933
vt 0.771996 0.338956
vt 0.771996 0.259933
vt 0.920366 0.259933
vt 0.920367 0.338956
vt 0.950459 0.338956
vt 0.950459 0.259933
vt 0.058842 0.338956
vt 0.058842 0.259933
vt 0.860181 0.259933
vt 0.860181 0.338956
vt 0.088935 0.338956
vt 0.088935 0.259933
vt 0.149120 0.259933
vt 0.149120 0.338956
vt 0.801391 0.338956
vt 0.801391 0.259933
vt 0.266700 0.338956
vn 0.6039 -0.7971 0.0000
vn 0.7586 -0.6516 -0.0002
vn 0.5682 -0.4881 0.6625
vn 0.4270 -0.5636 0.7071
vn 0.9511 -0.3089 -0.0016
vn 0.7083 -0.2291 0.6677
vn 0.4270 -0.5636 -0.7071
vn 0.0000 0.0000 -1.0000
vn 0.7063 -0.2308 -0.6692
vn 0.5683 -0.4879 -0.6625
vn 0.0000 0.0000 1.0000
vn 0.0000 -0.8051 0.5931
vn -0.7292 0.6842 0.0000
vn 0.0000 1.0000 0.0000
vn 0.0000 0.3352 0.9421
vn -0.5371 0.5040 0.6764
vn 0.2940 0.9558 0.0000
vn -0.0542 0.9985 0.0000
vn -0.0405 0.7457 0.6650
vn 0.2171 0.7057 0.6744
vn 0.6182 0.7860 0.0000
vn 0.4633 0.5891 0.6620
vn -0.4476 0.8942 0.0000
vn -0.3351 0.6694 0.6630
vn 0.0000 -0.8051 -0.5931
vn 0.0000 -1.0000 0.0000
vn 0.8422 0.5390 -0.0007
vn 0.6167 0.3949 0.6809
vn 0.7276 -0.0227 0.6856
vn 0.7190 0.1938 0.6675
vn 0.9994 -0.0342 0.0008
vn 0.7276 -0.0253 -0.6855
vn 0.7226 0.1856 -0.6658
vn 0.9673 0.2534 0.0015
vn 0.0000 0.3352 -0.9421
vn -0.5371 0.5040 -0.6764
vn 0.4633 0.5891 -0.6620
vn 0.6169 0.3941 -0.6812
vn -0.3351 0.6694 -0.6630
vn 0.8426 0.5386 -0.0007
vn -0.0405 0.7457 -0.6650
vn 0.2171 0.7057 -0.6744
vn 0.9509 -0.3094 -0.0016
vn 0.9995 -0.0316 0.0008
vn 0.9667 0.2557 0.0015
vn 0.7587 -0.6514 -0.0002
vn -0.6039 -0.7971 0.0000
vn -0.4270 -0.5636 0.7071
vn -0.5682 -0.4881 0.6625
vn -0.7586 -0.6516 -0.0002
vn -0.7083 -0.2291 0.6677
vn -0.9511 -0.3089 -0.0016
vn -0.4270 -0.5636 -0.7071
vn -0.5683 -0.4879 -0.6625
vn -0.7063 -0.2308 -0.6692
vn 0.7292 0.6842 0.0000
vn 0.5371 0.5040 0.6764
vn -0.2940 0.9558 0.0000
vn -0.2171 0.7057 0.6744
vn 0.0405 0.7457 0.6650
vn 0.0542 0.9985 0.0000
vn -0.6182 0.7860 0.0000
vn -0.4633 0.5891 0.6620
vn 0.3351 0.6694 0.6630
vn 0.4476 0.8942 0.0000
vn -0.8422 0.5390 -0.0007
vn -0.6167 0.3949 0.6809
vn -0.7190 0.1938 0.6675
vn -0.7276 -0.0227 0.6856
vn -0.9994 -0.0342 0.0008
vn -0.9673 0.2534 0.0015
vn -0.7226 0.1856 -0.6658
vn -0.7276 -0.0253 -0.6855
vn 0.5371 0.5040 -0.6764
vn -0.6169 0.3941 -0.6812
vn -0.4633 0.5891 -0.6620
vn 0.3351 0.6694 -0.6630
vn -0.8426 0.5386 -0.0007
vn 0.0405 0.7457 -0.6650
vn -0.2171 0.7057 -0.6744
vn -0.9509 -0.3094 -0.0016
vn -0.9995 -0.0316 0.0008
vn -0.9667 0.2557 0.0015
vn -0.7587 -0.6514 -0.0002
s 1
f 86/1/1 87/2/2 4/3/3 21/4/4
f 87/2/2 90/5/5 50/6/6 4/3/3
f 23/7/7 49/8/8 60/9/9 2/10/10
f 19/11/4 59/12/11 153/13/11 97/14/12
f 84/15/13 180/16/14 96/17/15 18/18/16
f 79/19/17 77/20/18 8/21/19 12/22/20
f 9/23/4 56/24/11 55/25/11 5/26/4
f 13/27/7 52/28/8 57/29/8 7/30/7
f 81/31/1 78/32/1 5/33/4 15/34/4
f 21/35/4 58/36/11 56/24/11 9/23/4
f 85/37/21 79/19/17 12/22/20 24/38/22
f 7/30/7 57/29/8 51/39/8 11/40/7
f 78/32/1 80/41/1 9/42/4 5/33/4
f 83/43/1 81/31/1 15/34/4 19/44/4
f 17/45/7 53/46/8 52/28/8 13/27/7
f 77/20/18 82/47/23 14/48/24 8/21/19
f 5/26/4 55/25/11 54/49/11 15/50/4
f 95/51/25 150/52/8 53/46/8 17/45/7
f 179/53/26 83/43/1 19/44/4 97/54/12
f 82/47/23 84/15/13 18/18/16 14/48/24
f 15/50/4 54/49/11 59/12/11 19/11/4
f 76/55/27 85/37/21 24/38/22 3/56/28
f 4/3/3 50/6/6 58/36/11 21/35/4
f 11/40/7 51/39/8 49/8/8 23/7/7
f 80/41/1 86/1/1 21/4/4 9/42/4
f 34/57/11 26/58/29 44/59/30 38/60/11
f 73/61/31 36/62/32 42/63/33 74/64/34
f 125/65/11 35/66/11 40/67/11 137/68/11
f 33/69/8 28/70/8 37/71/8 48/72/8
f 32/73/11 34/57/11 38/60/11 47/74/11
f 27/75/8 33/69/8 48/72/8 46/76/8
f 29/77/8 122/78/8 145/79/8 39/80/8
f 25/81/8 27/75/8 46/76/8 41/82/8
f 36/62/32 25/81/8 41/82/8 42/63/33
f 31/83/11 32/73/11 47/74/11 45/84/11
f 28/70/8 29/77/8 39/80/8 37/71/8
f 30/85/11 31/83/11 45/84/11 43/86/11
f 35/66/11 30/85/11 43/86/11 40/67/11
f 38/60/11 44/59/30 3/56/28 24/87/22
f 137/68/11 40/67/11 18/88/16 96/89/15
f 47/74/11 38/60/11 24/87/22 12/90/20
f 39/80/8 145/79/8 98/91/35 20/92/36
f 42/63/33 41/82/8 22/93/37 1/94/38
f 37/71/8 39/80/8 20/92/36 16/95/39
f 40/67/11 43/86/11 14/96/24 18/88/16
f 74/64/34 42/63/33 1/94/38 61/97/40
f 48/72/8 37/71/8 16/95/39 6/98/41
f 46/76/8 48/72/8 6/98/41 10/99/42
f 41/82/8 46/76/8 10/99/42 22/93/37
f 45/84/11 47/74/11 12/90/20 8/100/19
f 43/86/11 45/84/11 8/100/19 14/96/24
f 58/36/11 50/6/6 26/58/29 34/57/11
f 75/101/43 60/9/9 36/62/32 73/61/31
f 153/13/11 59/12/11 35/66/11 125/65/11
f 57/29/8 52/28/8 28/70/8 33/69/8
f 56/24/11 58/36/11 34/57/11 32/73/11
f 51/39/8 57/29/8 33/69/8 27/75/8
f 53/46/8 150/52/8 122/78/8 29/77/8
f 49/8/8 51/39/8 27/75/8 25/81/8
f 60/9/9 49/8/8 25/81/8 36/62/32
f 55/25/11 56/24/11 32/73/11 31/83/11
f 52/28/8 53/46/8 29/77/8 28/70/8
f 54/49/11 55/25/11 31/83/11 30/85/11
f 59/12/11 54/49/11 30/85/11 35/66/11
f 90/5/5 75/101/43 73/61/31 88/102/44
f 89/103/45 74/64/34 61/97/40 76/55/27
f 88/102/44 73/61/31 74/64/34 89/103/45
f 11/104/7 23/105/7 72/106/1 66/107/1
f 1/94/38 22/108/37 71/109/21 61/97/40
f 16/110/39 20/111/36 70/112/13 68/113/23
f 95/114/25 17/115/7 69/116/1 163/117/26
f 6/118/41 16/110/39 68/113/23 63/119/18
f 17/115/7 13/120/7 67/121/1 69/116/1
f 7/122/7 11/104/7 66/107/1 64/123/1
f 22/108/37 10/124/42 65/125/17 71/109/21
f 13/120/7 7/122/7 64/123/1 67/121/1
f 10/124/42 6/118/41 63/119/18 65/125/17
f 20/111/36 98/126/35 164/127/14 70/112/13
f 2/10/10 60/9/9 75/101/43 62/128/46
f 23/105/7 2/10/10 62/128/46 72/106/1
f 26/58/29 88/102/44 89/103/45 44/59/30
f 44/59/30 89/103/45 76/55/27 3/56/28
f 50/6/6 90/5/5 88/102/44 26/58/29
f 66/107/1 72/106/1 86/1/1 80/41/1
f 61/97/40 71/109/21 85/37/21 76/55/27
f 68/113/23 70/112/13 84/15/13 82/47/23
f 163/117/26 69/116/1 83/43/1 179/53/26
f 63/119/18 68/113/23 82/47/23 77/20/18
f 69/116/1 67/121/1 81/31/1 83/43/1
f 64/123/1 66/107/1 80/41/1 78/32/1
f 71/109/21 65/125/17 79/19/17 85/37/21
f 67/121/1 64/123/1 78/32/1 81/31/1
f 65/125/17 63/119/18 77/20/18 79/19/17
f 70/112/13 164/127/14 180/16/14 84/15/13
f 62/128/46 75/101/43 90/5/5 87/2/2
f 72/106/1 62/128/46 87/2/2 86/1/1
f 190/129/47 115/130/48 94/131/49 191/132/50
f 191/132/50 94/131/49 148/133/51 194/134/52
f 117/135/53 92/136/54 160/137/55 147/138/8
f 113/139/48 97/14/12 153/13/11 159/140/11
f 188/141/56 112/142/57 96/17/15 180/16/14
f 183/143/58 106/144/59 102/145/60 181/146/61
f 103/147/48 99/148/48 155/149/11 156/150/11
f 107/151/53 101/152/53 157/153/8 151/154/8
f 185/155/47 109/156/48 99/157/48 182/158/47
f 115/159/48 103/147/48 156/150/11 158/160/11
f 189/161/62 118/162/63 106/144/59 183/143/58
f 101/152/53 105/163/53 149/164/8 157/153/8
f 182/158/47 99/157/48 103/165/48 184/166/47
f 187/167/47 113/168/48 109/156/48 185/155/47
f 111/169/53 107/151/53 151/154/8 152/170/8
f 181/146/61 102/145/60 108/171/64 186/172/65
f 99/148/48 109/173/48 154/174/11 155/149/11
f 95/51/25 111/169/53 152/170/8 150/52/8
f 179/53/26 97/54/12 113/168/48 187/167/47
f 186/172/65 108/171/64 112/142/57 188/141/56
f 109/173/48 113/139/48 159/140/11 154/174/11
f 178/175/66 93/176/67 118/162/63 189/161/62
f 94/131/49 115/159/48 158/160/11 148/133/51
f 105/163/53 117/135/53 147/138/8 149/164/8
f 184/166/47 103/165/48 115/130/48 190/129/47
f 130/177/11 134/178/11 141/179/68 120/180/69
f 175/181/70 176/182/71 139/183/72 132/184/73
f 125/65/11 137/68/11 136/185/11 131/186/11
f 129/187/8 146/188/8 133/189/8 123/190/8
f 128/191/11 144/192/11 134/178/11 130/177/11
f 121/193/8 143/194/8 146/188/8 129/187/8
f 124/195/8 135/196/8 145/79/8 122/78/8
f 119/197/8 138/198/8 143/194/8 121/193/8
f 132/184/73 139/183/72 138/198/8 119/197/8
f 127/199/11 142/200/11 144/192/11 128/191/11
f 123/190/8 133/189/8 135/196/8 124/195/8
f 126/201/11 140/202/11 142/200/11 127/199/11
f 131/186/11 136/185/11 140/202/11 126/201/11
f 134/178/11 118/203/63 93/176/67 141/179/68
f 137/68/11 96/89/15 112/204/57 136/185/11
f 144/192/11 106/205/59 118/203/63 134/178/11
f 135/196/8 114/206/74 98/91/35 145/79/8
f 139/183/72 91/207/75 116/208/76 138/198/8
f 133/189/8 110/209/77 114/206/74 135/196/8
f 136/185/11 112/204/57 108/210/64 140/202/11
f 176/182/71 161/211/78 91/207/75 139/183/72
f 146/188/8 100/212/79 110/209/77 133/189/8
f 143/194/8 104/213/80 100/212/79 146/188/8
f 138/198/8 116/208/76 104/213/80 143/194/8
f 142/200/11 102/214/60 106/205/59 144/192/11
f 140/202/11 108/210/64 102/214/60 142/200/11
f 158/160/11 130/177/11 120/180/69 148/133/51
f 177/215/81 175/181/70 132/184/73 160/137/55
f 153/13/11 125/65/11 131/186/11 159/140/11
f 157/153/8 129/187/8 123/190/8 151/154/8
f 156/150/11 128/191/11 130/177/11 158/160/11
f 149/164/8 121/193/8 129/187/8 157/153/8
f 152/170/8 124/195/8 122/78/8 150/52/8
f 147/138/8 119/197/8 121/193/8 149/164/8
f 160/137/55 132/184/73 119/197/8 147/138/8
f 155/149/11 127/199/11 128/191/11 156/150/11
f 151/154/8 123/190/8 124/195/8 152/170/8
f 154/174/11 126/201/11 127/199/11 155/149/11
f 159/140/11 131/186/11 126/201/11 154/174/11
f 194/134/52 192/216/82 175/181/70 177/215/81
f 193/217/83 178/175/66 161/211/78 176/182/71
f 192/216/82 193/217/83 176/182/71 175/181/70
f 105/218/53 168/219/47 174/220/47 117/221/53
f 91/207/75 161/211/78 173/222/62 116/223/76
f 110/224/77 170/225/65 172/226/56 114/227/74
f 95/114/25 163/117/26 171/228/47 111/229/53
f 100/230/79 165/231/61 170/225/65 110/224/77
f 111/229/53 171/228/47 169/232/47 107/233/53
f 101/234/53 166/235/47 168/219/47 105/218/53
f 116/223/76 173/222/62 167/236/58 104/237/80
f 107/233/53 169/232/47 166/235/47 101/234/53
f 104/237/80 167/236/58 165/231/61 100/230/79
f 114/227/74 172/226/56 164/127/14 98/126/35
f 92/136/54 162/238/84 177/215/81 160/137/55
f 117/221/53 174/220/47 162/238/84 92/136/54
f 120/180/69 141/179/68 193/217/83 192/216/82
f 141/179/68 93/176/67 178/175/66 193/217/83
f 148/133/51 120/180/69 192/216/82 194/134/52
f 168/219/47 184/166/47 190/129/47 174/220/47
f 161/211/78 178/175/66 189/161/62 173/222/62
f 170/225/65 186/172/65 188/141/56 172/226/56
f 163/117/26 179/53/26 187/167/47 171/228/47
f 165/231/61 181/146/61 186/172/65 170/225/65
f 171/228/47 187/167/47 185/155/47 169/232/47
f 166/235/47 182/158/47 184/166/47 168/219/47
f 173/222/62 189/161/62 183/143/58 167/236/58
f 169/232/47 185/155/47 182/158/47 166/235/47
f 167/236/58 183/143/58 181/146/61 165/231/61
f 172/226/56 188/141/56 180/16/14 164/127/14
f 162/238/84 191/132/50 194/134/52 177/215/81
f 174/220/47 190/129/47 191/132/50 162/238/84
