# Blender v2.91.0 OBJ File: 'power_ups.blend'
# www.blender.org
o SpeedUp_2_Cube.024
v 0.205991 0.215312 0.056438
v 0.205991 0.215312 0.051824
v 0.034745 0.082599 0.056438
v 0.224183 0.217362 0.056438
v 0.239543 0.159061 0.056438
v 0.034070 0.019098 0.056438
v 0.224183 0.217362 0.051824
v 0.224183 0.217362 -0.051732
v 0.239543 0.159061 0.051824
v 0.239543 0.159061 -0.051732
v 0.242409 0.142623 0.051824
v 0.242409 0.142623 -0.051732
v 0.242409 0.142623 0.056438
v 0.235908 0.125334 0.051824
v 0.235908 0.125334 -0.051732
v 0.235908 0.125334 0.056438
v 0.030788 -0.045268 0.051824
v 0.030788 -0.045268 0.056438
v 0.030788 -0.045268 -0.051732
v -0.002551 -0.060863 0.051824
v -0.002551 -0.060863 0.056438
v -0.002551 -0.060863 -0.051732
v -0.035881 -0.045245 0.051824
v -0.035881 -0.045245 0.056438
v -0.035881 -0.045245 -0.051732
v -0.240884 0.125496 0.051824
v -0.240884 0.125496 -0.051732
v -0.240884 0.125496 0.056438
v -0.247374 0.142790 0.051824
v -0.247374 0.142790 -0.051732
v -0.247374 0.142790 0.056438
v -0.244496 0.159225 0.051824
v -0.244496 0.159225 -0.051732
v -0.244496 0.159225 0.056438
v -0.229097 0.217516 0.051824
v -0.229097 0.217516 -0.051732
v -0.229097 0.217516 0.056438
v -0.210907 0.215454 0.051824
v -0.210907 0.215454 0.056438
v -0.210907 0.215454 -0.051732
v -0.039750 0.082624 0.051824
v -0.039750 0.082624 0.056438
v -0.039750 0.082624 -0.051732
v -0.002508 0.065330 0.051824
v -0.002508 0.065330 0.056438
v -0.002508 0.065330 -0.051732
v 0.034745 0.082599 0.051824
v 0.034745 0.082599 -0.051732
v 0.034745 0.082599 -0.056438
v 0.205991 0.215312 -0.051732
v 0.205991 0.215312 -0.056438
v 0.224183 0.217362 -0.056438
v 0.239543 0.159061 -0.056438
v 0.034070 0.019098 -0.056438
v 0.032758 -0.006629 -0.056438
v -0.002530 0.002109 -0.056438
v -0.002508 0.065330 -0.056438
v -0.002539 -0.023061 -0.056438
v -0.039118 0.019123 -0.056438
v -0.039750 0.082624 -0.056438
v -0.037824 -0.006605 -0.056438
v -0.229097 0.217516 -0.056438
v -0.210907 0.215454 -0.056438
v -0.244496 0.159225 -0.056438
v -0.247374 0.142790 -0.056438
v -0.240884 0.125496 -0.056438
v -0.036453 -0.033864 -0.056438
v -0.035881 -0.045245 -0.056438
v -0.002548 -0.049729 -0.056438
v -0.002551 -0.060863 -0.056438
v 0.031369 -0.033887 -0.056438
v 0.030788 -0.045268 -0.056438
v 0.242409 0.142623 -0.056438
v 0.235908 0.125334 -0.056438
v -0.002530 0.002109 0.056438
v -0.002539 -0.023061 0.056438
v -0.039118 0.019123 0.056438
v -0.037824 -0.006605 0.056438
v -0.036453 -0.033864 0.056438
v -0.002548 -0.049729 0.056438
v 0.031369 -0.033887 0.056438
v 0.032758 -0.006629 0.056438
v 0.205937 0.054194 0.056438
v 0.205937 0.054194 0.051824
v 0.034690 -0.078519 0.056438
v 0.224128 0.056244 0.056438
v 0.239488 -0.002057 0.056438
v 0.034015 -0.142020 0.056438
v 0.224128 0.056244 0.051824
v 0.224128 0.056244 -0.051732
v 0.239488 -0.002057 0.051824
v 0.239488 -0.002057 -0.051732
v 0.242355 -0.018494 0.051824
v 0.242355 -0.018494 -0.051732
v 0.242355 -0.018494 0.056438
v 0.235853 -0.035784 0.051824
v 0.235853 -0.035784 -0.051732
v 0.235853 -0.035784 0.056438
v 0.030734 -0.206386 0.051824
v 0.030734 -0.206386 0.056438
v 0.030734 -0.206386 -0.051732
v -0.002606 -0.221981 0.051824
v -0.002606 -0.221981 0.056438
v -0.002606 -0.221981 -0.051732
v -0.035935 -0.206363 0.051824
v -0.035935 -0.206363 0.056438
v -0.035935 -0.206363 -0.051732
v -0.240939 -0.035622 0.051824
v -0.240939 -0.035622 -0.051732
v -0.240939 -0.035622 0.056438
v -0.247428 -0.018328 0.051824
v -0.247428 -0.018328 -0.051732
v -0.247428 -0.018328 0.056438
v -0.244551 -0.001893 0.051824
v -0.244551 -0.001893 -0.051732
v -0.244551 -0.001893 0.056438
v -0.229151 0.056398 0.051824
v -0.229151 0.056398 -0.051732
v -0.229151 0.056398 0.056438
v -0.210961 0.054336 0.051824
v -0.210961 0.054336 0.056438
v -0.210961 0.054336 -0.051732
v -0.039805 -0.078494 0.051824
v -0.039805 -0.078494 0.056438
v -0.039805 -0.078494 -0.051732
v -0.002563 -0.095788 0.051824
v -0.002563 -0.095788 0.056438
v -0.002563 -0.095788 -0.051732
v 0.034690 -0.078519 0.051824
v 0.034690 -0.078519 -0.051732
v 0.034690 -0.078519 -0.056438
v 0.205937 0.054194 -0.051732
v 0.205937 0.054194 -0.056438
v 0.224128 0.056244 -0.056438
v 0.239488 -0.002057 -0.056438
v 0.034015 -0.142020 -0.056438
v 0.032703 -0.167747 -0.056438
v -0.002585 -0.159009 -0.056438
v -0.002563 -0.095788 -0.056438
v -0.002593 -0.184179 -0.056438
v -0.039173 -0.141995 -0.056438
v -0.039805 -0.078494 -0.056438
v -0.037879 -0.167723 -0.056438
v -0.229151 0.056398 -0.056438
v -0.210961 0.054336 -0.056438
v -0.244551 -0.001893 -0.056438
v -0.247428 -0.018328 -0.056438
v -0.240939 -0.035622 -0.056438
v -0.036508 -0.194982 -0.056438
v -0.035935 -0.206363 -0.056438
v -0.002602 -0.210847 -0.056438
v -0.002606 -0.221981 -0.056438
v 0.031314 -0.195005 -0.056438
v 0.030734 -0.206386 -0.056438
v 0.242355 -0.018494 -0.056438
v 0.235853 -0.035784 -0.056438
v -0.002585 -0.159009 0.056438
v -0.002593 -0.184179 0.056438
v -0.039173 -0.141995 0.056438
v -0.037879 -0.167723 0.056438
v -0.036508 -0.194982 0.056438
v -0.002602 -0.210847 0.056438
v 0.031314 -0.195005 0.056438
v 0.032703 -0.167747 0.056438
vt 0.375000 0.000000
vt 0.416770 0.000000
vt 0.416770 0.010219
vt 0.375000 0.010219
vt 0.125000 0.739781
vt 0.232759 0.739781
vt 0.232759 0.750000
vt 0.125000 0.750000
vt 0.375000 0.892241
vt 0.416770 0.892241
vt 0.416770 1.000000
vt 0.375000 1.000000
vt 0.500000 0.000000
vt 0.500000 0.010219
vt 0.500000 0.892241
vt 0.500000 1.000000
vt 0.500000 0.239579
vt 0.416770 0.239579
vt 0.375000 0.239579
vt 0.588181 0.010219
vt 0.588181 0.239579
vt 0.588181 0.000000
vt 0.625000 0.010219
vt 0.625000 0.239579
vt 0.625000 0.000000
vt 0.767241 0.510421
vt 0.875000 0.510421
vt 0.875000 0.739781
vt 0.767241 0.739781
vt 0.875000 0.750000
vt 0.767241 0.750000
vt 0.750000 0.739781
vt 0.750000 0.750000
vt 0.750000 0.510421
vt 0.767241 0.750000
vt 0.767241 0.739781
vt 0.767241 0.510421
vt 0.875000 0.750000
vt 0.875000 0.739781
vt 0.875000 0.510421
vt 0.588181 0.010219
vt 0.588181 0.239579
vt 0.625000 0.239579
vt 0.625000 0.010219
vt 0.588181 0.000000
vt 0.625000 0.000000
vt 0.500000 0.010219
vt 0.500000 0.239579
vt 0.500000 0.000000
vt 0.416770 0.010219
vt 0.416770 0.239579
vt 0.416770 0.000000
vt 0.375000 0.010219
vt 0.375000 0.239579
vt 0.375000 0.000000
vt 0.125000 0.739781
vt 0.125000 0.750000
vt 0.232759 0.750000
vt 0.232759 0.739781
vt 0.125000 0.510421
vt 0.232759 0.510421
vt 0.250000 0.750000
vt 0.250000 0.739781
vt 0.250000 0.510421
vt 0.232759 0.510421
vt 0.125000 0.510421
vt 0.232759 0.500000
vt 0.250000 0.500000
vt 0.125000 0.500000
vt 0.416770 0.250000
vt 0.375000 0.250000
vt 0.416770 0.357759
vt 0.375000 0.357759
vt 0.500000 0.250000
vt 0.500000 0.357759
vt 0.416770 0.375000
vt 0.375000 0.375000
vt 0.500000 0.375000
vt 0.375000 0.357759
vt 0.416770 0.357759
vt 0.500000 0.357759
vt 0.375000 0.250000
vt 0.416770 0.250000
vt 0.500000 0.250000
vt 0.588181 0.250000
vt 0.588181 0.357759
vt 0.625000 0.357759
vt 0.625000 0.250000
vt 0.588181 0.375000
vt 0.625000 0.375000
vt 0.588181 0.357759
vt 0.625000 0.357759
vt 0.588181 0.250000
vt 0.625000 0.250000
vt 0.767241 0.500000
vt 0.875000 0.500000
vt 0.750000 0.500000
vt 0.767241 0.500000
vt 0.875000 0.500000
vt 0.125000 0.500000
vt 0.232759 0.500000
vt 0.375000 0.875000
vt 0.416770 0.875000
vt 0.375000 0.892241
vt 0.416770 0.892241
vt 0.500000 0.892241
vt 0.500000 0.875000
vt 0.375000 1.000000
vt 0.416770 1.000000
vt 0.500000 1.000000
vt 0.588181 1.000000
vt 0.588181 0.892241
vt 0.588181 0.875000
vt 0.625000 0.892241
vt 0.625000 0.875000
vt 0.625000 1.000000
vt 0.588181 0.892241
vt 0.625000 0.892241
vt 0.588181 1.000000
vt 0.625000 1.000000
vt 0.125000 0.739781
vt 0.232759 0.739781
vt 0.232759 0.750000
vt 0.125000 0.750000
vt 0.375000 0.000000
vt 0.416770 0.000000
vt 0.416770 0.010219
vt 0.375000 0.010219
vt 0.375000 0.892241
vt 0.416770 0.892241
vt 0.416770 1.000000
vt 0.375000 1.000000
vt 0.500000 0.892241
vt 0.500000 1.000000
vt 0.500000 0.000000
vt 0.500000 0.010219
vt 0.416770 0.239579
vt 0.375000 0.239579
vt 0.500000 0.239579
vt 0.588181 0.010219
vt 0.588181 0.239579
vt 0.588181 0.000000
vt 0.625000 0.010219
vt 0.625000 0.239579
vt 0.625000 0.000000
vt 0.767241 0.510421
vt 0.875000 0.510421
vt 0.875000 0.739781
vt 0.767241 0.739781
vt 0.875000 0.750000
vt 0.767241 0.750000
vt 0.750000 0.739781
vt 0.750000 0.750000
vt 0.750000 0.510421
vt 0.767241 0.750000
vt 0.767241 0.739781
vt 0.767241 0.510421
vt 0.875000 0.750000
vt 0.875000 0.739781
vt 0.875000 0.510421
vt 0.588181 0.010219
vt 0.588181 0.239579
vt 0.625000 0.239579
vt 0.625000 0.010219
vt 0.588181 0.000000
vt 0.625000 0.000000
vt 0.500000 0.010219
vt 0.500000 0.239579
vt 0.500000 0.000000
vt 0.416770 0.010219
vt 0.416770 0.239579
vt 0.416770 0.000000
vt 0.375000 0.010219
vt 0.375000 0.239579
vt 0.375000 0.000000
vt 0.125000 0.739781
vt 0.125000 0.750000
vt 0.232759 0.750000
vt 0.232759 0.739781
vt 0.125000 0.510421
vt 0.232759 0.510421
vt 0.250000 0.750000
vt 0.250000 0.739781
vt 0.250000 0.510421
vt 0.232759 0.510421
vt 0.125000 0.510421
vt 0.125000 0.500000
vt 0.232759 0.500000
vt 0.250000 0.500000
vt 0.416770 0.250000
vt 0.375000 0.250000
vt 0.416770 0.357759
vt 0.375000 0.357759
vt 0.500000 0.250000
vt 0.500000 0.357759
vt 0.416770 0.375000
vt 0.375000 0.375000
vt 0.500000 0.375000
vt 0.375000 0.357759
vt 0.416770 0.357759
vt 0.500000 0.357759
vt 0.375000 0.250000
vt 0.416770 0.250000
vt 0.500000 0.250000
vt 0.588181 0.357759
vt 0.588181 0.250000
vt 0.625000 0.250000
vt 0.625000 0.357759
vt 0.588181 0.375000
vt 0.625000 0.375000
vt 0.588181 0.357759
vt 0.625000 0.357759
vt 0.588181 0.250000
vt 0.625000 0.250000
vt 0.767241 0.500000
vt 0.875000 0.500000
vt 0.750000 0.500000
vt 0.767241 0.500000
vt 0.875000 0.500000
vt 0.125000 0.500000
vt 0.232759 0.500000
vt 0.375000 0.875000
vt 0.416770 0.875000
vt 0.375000 0.892241
vt 0.416770 0.892241
vt 0.500000 0.875000
vt 0.500000 0.892241
vt 0.375000 1.000000
vt 0.416770 1.000000
vt 0.500000 1.000000
vt 0.588181 0.892241
vt 0.588181 0.875000
vt 0.588181 1.000000
vt 0.625000 1.000000
vt 0.625000 0.892241
vt 0.625000 0.875000
vt 0.588181 0.892241
vt 0.625000 0.892241
vt 0.588181 1.000000
vt 0.625000 1.000000
vn -0.2856 0.7032 0.6511
vn 0.4581 0.6689 0.5854
vn 0.5650 0.8250 0.0000
vn -0.3762 0.9265 0.0000
vn -0.5199 0.8542 0.0000
vn -0.3534 0.5808 0.7333
vn 0.0000 0.0000 1.0000
vn 0.6999 0.1529 0.6977
vn 0.9769 0.2134 0.0000
vn 0.9956 -0.0934 0.0000
vn 0.7545 -0.0708 0.6524
vn 0.8148 -0.5797 0.0000
vn 0.6165 -0.4386 0.6538
vn 0.5360 -0.8442 0.0000
vn 0.3932 -0.6194 0.6794
vn -0.0003 -1.0000 0.0000
vn -0.0002 -0.7822 0.6229
vn -0.3937 -0.6192 0.6794
vn -0.5365 -0.8439 0.0000
vn -0.6168 -0.4382 0.6538
vn -0.8152 -0.5791 0.0000
vn -0.9957 -0.0927 0.0000
vn -0.7546 -0.0703 0.6524
vn -0.9768 0.2141 0.0000
vn -0.6998 0.1534 0.6977
vn -0.5645 0.8254 0.0000
vn -0.4577 0.6692 0.5854
vn 0.3769 0.9262 0.0000
vn 0.2860 0.7031 0.6511
vn 0.3538 0.5806 0.7333
vn 0.5204 0.8539 0.0000
vn 0.0002 0.5792 0.8151
vn 0.0003 1.0000 0.0000
vn -0.3534 0.5808 -0.7333
vn 0.0002 0.5792 -0.8151
vn -0.2856 0.7032 -0.6511
vn 0.4581 0.6689 -0.5854
vn 0.0000 0.0000 -1.0000
vn 0.6999 0.1529 -0.6977
vn 0.3538 0.5806 -0.7333
vn 0.2860 0.7031 -0.6511
vn -0.4577 0.6692 -0.5854
vn -0.6998 0.1534 -0.6977
vn -0.7546 -0.0703 -0.6524
vn -0.3937 -0.6192 -0.6794
vn -0.6168 -0.4382 -0.6538
vn -0.0002 -0.7822 -0.6229
vn 0.3932 -0.6194 -0.6794
vn 0.7545 -0.0708 -0.6524
vn 0.6165 -0.4386 -0.6538
vn -0.3763 0.9265 0.0000
s 1
f 1/1/1 4/2/2 7/3/3 2/4/4
f 2/5/4 47/6/5 3/7/6 1/8/1
f 3/9/6 6/10/7 4/11/2 1/12/1
f 4/2/2 5/13/8 9/14/9 7/3/3
f 6/10/7 82/15/7 5/16/8 4/11/2
f 7/3/3 9/14/9 10/17/9 8/18/3
f 2/4/4 7/3/3 8/18/3 50/19/4
f 9/14/9 11/20/10 12/21/10 10/17/9
f 5/13/8 13/22/11 11/20/10 9/14/9
f 11/20/10 14/23/12 15/24/12 12/21/10
f 13/22/11 16/25/13 14/23/12 11/20/10
f 19/26/14 15/27/12 14/28/12 17/29/14
f 17/29/14 14/28/12 16/30/13 18/31/15
f 20/32/16 17/29/14 18/31/15 21/33/17
f 22/34/16 19/26/14 17/29/14 20/32/16
f 20/32/16 21/33/17 24/35/18 23/36/19
f 22/34/16 20/32/16 23/36/19 25/37/19
f 23/36/19 24/35/18 28/38/20 26/39/21
f 25/37/19 23/36/19 26/39/21 27/40/21
f 29/41/22 30/42/22 27/43/21 26/44/21
f 31/45/23 29/41/22 26/44/21 28/46/20
f 32/47/24 33/48/24 30/42/22 29/41/22
f 34/49/25 32/47/24 29/41/22 31/45/23
f 35/50/26 36/51/26 33/48/24 32/47/24
f 37/52/27 35/50/26 32/47/24 34/49/25
f 38/53/28 40/54/28 36/51/26 35/50/26
f 39/55/29 38/53/28 35/50/26 37/52/27
f 38/56/28 39/57/29 42/58/30 41/59/31
f 40/60/28 38/56/28 41/59/31 43/61/31
f 41/59/31 42/58/30 45/62/32 44/63/33
f 43/61/31 41/59/31 44/63/33 46/64/33
f 47/6/5 44/63/33 45/62/32 3/7/6
f 48/65/5 46/64/33 44/63/33 47/6/5
f 50/66/4 48/65/5 47/6/5 2/5/4
f 49/67/34 57/68/35 46/64/33 48/65/5
f 51/69/36 49/67/34 48/65/5 50/66/4
f 50/19/4 8/18/3 52/70/37 51/71/36
f 51/71/36 52/70/37 54/72/38 49/73/34
f 8/18/3 10/17/9 53/74/39 52/70/37
f 52/70/37 53/74/39 55/75/38 54/72/38
f 49/73/34 54/72/38 56/76/38 57/77/35
f 54/72/38 55/75/38 58/78/38 56/76/38
f 60/79/40 57/77/35 56/76/38 59/80/38
f 59/80/38 56/76/38 58/78/38 61/81/38
f 63/82/41 60/79/40 59/80/38 62/83/42
f 62/83/42 59/80/38 61/81/38 64/84/43
f 40/54/28 63/82/41 62/83/42 36/51/26
f 36/51/26 62/83/42 64/84/43 33/48/24
f 33/48/24 64/84/43 65/85/44 30/42/22
f 64/84/43 61/81/38 67/86/38 65/85/44
f 65/85/44 67/86/38 68/87/45 66/88/46
f 30/42/22 65/85/44 66/88/46 27/43/21
f 61/81/38 58/78/38 69/89/38 67/86/38
f 67/86/38 69/89/38 70/90/47 68/87/45
f 55/75/38 71/91/38 69/89/38 58/78/38
f 71/91/38 72/92/48 70/90/47 69/89/38
f 53/74/39 73/93/49 71/91/38 55/75/38
f 73/93/49 74/94/50 72/92/48 71/91/38
f 10/17/9 12/21/10 73/93/49 53/74/39
f 12/21/10 15/24/12 74/94/50 73/93/49
f 72/95/48 74/96/50 15/27/12 19/26/14
f 70/97/47 72/95/48 19/26/14 22/34/16
f 70/97/47 22/34/16 25/37/19 68/98/45
f 68/98/45 25/37/19 27/40/21 66/99/46
f 63/100/41 40/60/28 43/61/31 60/101/40
f 60/101/40 43/61/31 46/64/33 57/68/35
f 45/102/32 75/103/7 6/10/7 3/9/6
f 45/102/32 42/104/30 77/105/7 75/103/7
f 75/103/7 77/105/7 78/106/7 76/107/7
f 75/103/7 76/107/7 82/15/7 6/10/7
f 42/104/30 39/108/29 37/109/27 77/105/7
f 77/105/7 37/109/27 34/110/25 78/106/7
f 78/106/7 34/110/25 31/111/23 79/112/7
f 76/107/7 78/106/7 79/112/7 80/113/7
f 80/113/7 79/112/7 24/114/18 21/115/17
f 79/112/7 31/111/23 28/116/20 24/114/18
f 76/107/7 80/113/7 81/117/7 82/15/7
f 80/113/7 21/115/17 18/118/15 81/117/7
f 82/15/7 81/117/7 13/119/11 5/16/8
f 81/117/7 18/118/15 16/120/13 13/119/11
f 84/121/51 129/122/5 85/123/6 83/124/1
f 83/125/1 86/126/2 89/127/3 84/128/51
f 85/129/6 88/130/7 86/131/2 83/132/1
f 88/130/7 164/133/7 87/134/8 86/131/2
f 86/126/2 87/135/8 91/136/9 89/127/3
f 84/128/51 89/127/3 90/137/3 132/138/51
f 89/127/3 91/136/9 92/139/9 90/137/3
f 91/136/9 93/140/10 94/141/10 92/139/9
f 87/135/8 95/142/11 93/140/10 91/136/9
f 93/140/10 96/143/12 97/144/12 94/141/10
f 95/142/11 98/145/13 96/143/12 93/140/10
f 101/146/14 97/147/12 96/148/12 99/149/14
f 99/149/14 96/148/12 98/150/13 100/151/15
f 102/152/16 99/149/14 100/151/15 103/153/17
f 104/154/16 101/146/14 99/149/14 102/152/16
f 102/152/16 103/153/17 106/155/18 105/156/19
f 104/154/16 102/152/16 105/156/19 107/157/19
f 105/156/19 106/155/18 110/158/20 108/159/21
f 107/157/19 105/156/19 108/159/21 109/160/21
f 111/161/22 112/162/22 109/163/21 108/164/21
f 113/165/23 111/161/22 108/164/21 110/166/20
f 114/167/24 115/168/24 112/162/22 111/161/22
f 116/169/25 114/167/24 111/161/22 113/165/23
f 117/170/26 118/171/26 115/168/24 114/167/24
f 119/172/27 117/170/26 114/167/24 116/169/25
f 120/173/28 122/174/28 118/171/26 117/170/26
f 121/175/29 120/173/28 117/170/26 119/172/27
f 120/176/28 121/177/29 124/178/30 123/179/31
f 122/180/28 120/176/28 123/179/31 125/181/31
f 123/179/31 124/178/30 127/182/32 126/183/33
f 125/181/31 123/179/31 126/183/33 128/184/33
f 129/122/5 126/183/33 127/182/32 85/123/6
f 130/185/5 128/184/33 126/183/33 129/122/5
f 132/186/51 130/185/5 129/122/5 84/121/51
f 133/187/36 131/188/34 130/185/5 132/186/51
f 131/188/34 139/189/35 128/184/33 130/185/5
f 132/138/51 90/137/3 134/190/37 133/191/36
f 133/191/36 134/190/37 136/192/38 131/193/34
f 134/190/37 135/194/39 137/195/38 136/192/38
f 90/137/3 92/139/9 135/194/39 134/190/37
f 131/193/34 136/192/38 138/196/38 139/197/35
f 136/192/38 137/195/38 140/198/38 138/196/38
f 142/199/40 139/197/35 138/196/38 141/200/38
f 141/200/38 138/196/38 140/198/38 143/201/38
f 145/202/41 142/199/40 141/200/38 144/203/42
f 144/203/42 141/200/38 143/201/38 146/204/43
f 122/174/28 145/202/41 144/203/42 118/171/26
f 118/171/26 144/203/42 146/204/43 115/168/24
f 146/204/43 143/201/38 149/205/38 147/206/44
f 115/168/24 146/204/43 147/206/44 112/162/22
f 112/162/22 147/206/44 148/207/46 109/163/21
f 147/206/44 149/205/38 150/208/45 148/207/46
f 143/201/38 140/198/38 151/209/38 149/205/38
f 149/205/38 151/209/38 152/210/47 150/208/45
f 137/195/38 153/211/38 151/209/38 140/198/38
f 153/211/38 154/212/48 152/210/47 151/209/38
f 135/194/39 155/213/49 153/211/38 137/195/38
f 155/213/49 156/214/50 154/212/48 153/211/38
f 92/139/9 94/141/10 155/213/49 135/194/39
f 94/141/10 97/144/12 156/214/50 155/213/49
f 154/215/48 156/216/50 97/147/12 101/146/14
f 152/217/47 154/215/48 101/146/14 104/154/16
f 152/217/47 104/154/16 107/157/19 150/218/45
f 150/218/45 107/157/19 109/160/21 148/219/46
f 145/220/41 122/180/28 125/181/31 142/221/40
f 142/221/40 125/181/31 128/184/33 139/189/35
f 127/222/32 157/223/7 88/130/7 85/129/6
f 127/222/32 124/224/30 159/225/7 157/223/7
f 157/223/7 158/226/7 164/133/7 88/130/7
f 157/223/7 159/225/7 160/227/7 158/226/7
f 124/224/30 121/228/29 119/229/27 159/225/7
f 159/225/7 119/229/27 116/230/25 160/227/7
f 158/226/7 160/227/7 161/231/7 162/232/7
f 160/227/7 116/230/25 113/233/23 161/231/7
f 161/231/7 113/233/23 110/234/20 106/235/18
f 162/232/7 161/231/7 106/235/18 103/236/17
f 158/226/7 162/232/7 163/237/7 164/133/7
f 162/232/7 103/236/17 100/238/15 163/237/7
f 164/133/7 163/237/7 95/239/11 87/134/8
f 163/237/7 100/238/15 98/240/13 95/239/11
